# xmcd
#
# Track frame offsets: 
#        150
#        12062
#        24337
#        36525
#        48437
#        60562
#        72837
#        85200
#        96637
#        109050
#        121587
#        134475
#        146600
#        159887
#        173425
#        185487
#        198800
#        212100
#        226412
#        239475
#        252100
#        265712
#        278712
#        290737
#
# Disc length: 4042 seconds
#
# Revision: 3
# Processed by: cddbd v1.5.1PL2 Copyright (c) Steve Scherf et al.
# Submitted via: ExactAudioCopy v0.95b3
#
DISCID=520fc818
DTITLE=Floyd Tillman - The Best of Floyd Tillman
DYEAR=1998
DGENRE=Honky Tonk
TTITLE0=Drivin' Nails in My Coffin [1946]
TTITLE1=Go Out and Find Somebody New [1946]
TTITLE2=Some Other World [1946]
TTITLE3=I'm Leaving This Old World Someday [1946]
TTITLE4=Gotta Have Somethin' [1947]
TTITLE5=You Made Me Live, Love and Die [1947]
TTITLE6=Please Don't Pass Me By [1947]
TTITLE7=I'll Take What I Can Get [1947]
TTITLE8=I Love You So Much It Hurts [1947]
TTITLE9=Slipping Around [1949]
TTITLE10=This Cold War with You [1949]
TTITLE11=I'll Never Slip Around Again [1949]
TTITLE12=I Gotta Have My Baby Back [1949]
TTITLE13=It Had to Be That Way [1949]
TTITLE14=I Almost Lost My Mind [1950]
TTITLE15=Just As Long as I Have You [1950]
TTITLE16=I Don't Care Anymore [1950]
TTITLE17=I'm Falling for You [1950]
TTITLE18=Each Night at Nine [1950]
TTITLE19=I Love You Just as You Are [1950]
TTITLE20=I'll Still Be Loving You [1951]
TTITLE21=Just One More Time [1952]
TTITLE22=Call On Me (And I'll Be There) [1954]
TTITLE23=Let's Make Memories Tonight [1954]
EXTD=Floyd Tillman (1914-12-08/2003-08-22]\nCD: Sony Music Special Pro
EXTD=ducts A 34707 (1998) - Collectors' Choice Music CCM-068-2 (1999-04
EXTD=20), UPC 617742006827.
EXTT0=(Joe Irby [1917-1983]]\nRecorded Hollywood US-CA, 1946-02-11 (HC
EXTT0=O 1694-1A) - Columbia 20026.
EXTT1=(Floyd Tillman]\nRecorded Hollywood US-CA, 1946-02-11 (HCO 1695-
EXTT1=1) - Columbia 20097.
EXTT2=(Floyd Tillman]\nRecorded Hollywood US-CA, 1946-02-11 (HCO 1696-
EXTT2=1) - Columbia 20026.
EXTT3=(Floyd Tillman]\nRecorded Hollywood US-CA, 1946-02-12 (HCO 1700-
EXTT3=1) - Columbia 20388 (1947-11-17).
EXTT4=(Floyd Tillman]\nRecorded Chicago US-IL, 1947-03-25 (CCO 4758-1D
EXTT4=) - Columbia 20126.
EXTT5=(Floyd Tillman]\nRecorded Chicago US-IL, 1947-03-25 (CCO 4760-1A
EXTT5=) - Columbia 20581.
EXTT6=(Floyd Tillman]\nRecorded Chicago US-IL, 1947-12-29 (CO 38771-1B
EXTT6=) - Columbia 20496.
EXTT7=(Floyd Tillman]\nRecorded Chicago US-IL, 1947-12-29 (CO 38773-1A
EXTT7=) - Columbia 20430.
EXTT8=(Floyd Tillman]\nRecorded Chicago US-IL, 1947-12-29 (CO 38774-1A
EXTT8=) - Columbia 20430.
EXTT9=(Floyd Tillman]\nRecorded Houston US-TX, 1949-01 (CO 40616-1A) - 
EXTT9=Columbia 20581.
EXTT10=(Floyd Tillman]\nRecorded Houston US-TX, 1949-08-02 (CO 41611-1
EXTT10=H) - Columbia 20615.
EXTT11=(Floyd Tillman]\nRecorded Houston US-TX, 1949-08-02 (CO 41612-1
EXTT11=) - Columbia 20615.
EXTT12=(Floyd Tillman]\nRecorded Houston US-TX, 1949-10 (CO 41790-1A);
EXTT12=Columbia 20641.
EXTT13=(Floyd Tillman]\nRecorded Houston US-TX, 1949-10 (CO 41799-1A);
EXTT13=Columbia 20641 (1949-10-31).
EXTT14=(Ivory Joe Hunter]\nRecorded Houston US-TX, 1950-01 (CO 42692-1
EXTT14=) - Columbia 20673.
EXTT15=(Floyd Tillman]\nMarge Tillman: harmony vocal\nRecorded Houston
EXTT15=US-TX, 1950-03-24 (CO 43044-1F) - Columbia 20694.
EXTT16=(Floyd Tillman]\nRecorded Houston US-TX, 1950-11-14 (RHCO 4335-
EXTT16=1N) - Columbia 20793.
EXTT17=(Floyd Tillman]\nRecorded Houston US-TX, 1950-11-14 (RHCO 4338-
EXTT17=1N) - Columbia 20771.
EXTT18=(Floyd Tillman]\nRecorded Houston US-TX, 1950-11-14 (RHCO 4340-
EXTT18=1N) - Columbia 20771.\nPreviously recorded and released in 1944.
EXTT18=\nSubsequently recorded 1957-12-12 (RCA Victor), 1962-08-13 (Ci
EXTT18=marron/Starday), and 1967/1968 (Musicor).
EXTT19=(Floyd Tillman]\nRecorded Houston US-TX, 1950-11-14 (RHCO 4341-
EXTT19=1N) - Columbia 20793.
EXTT20=(Floyd Tillman]\nRecorded Houston US-TX, 1951-08-08 (CO 46866-1
EXTT20=A) - Columbia 20894 (1952-02-08).
EXTT21=(Floyd Tillman]\nRecorded Houston US-TX, 1952-12-01 (CO 48590, 
EXTT21=ZSP 12815-1B) - Columbia 21200.
EXTT22=(Floyd Tillman]\nRecorded Houston US-TX, 1954-01-07 (CO 50724-1
EXTT22=B) - Columbia 21257 (1954-05-24).
EXTT23=(Floyd Tillman]\nRecorded Houston US-TX, 1954-12-20 (CO 52962);
EXTT23=Columbia 21372 (1955-02-28).
PLAYORDER=
